<svg width="16" height="16" viewBox="0 0 16 16" fill="none" xmlns="http://www.w3.org/2000/svg">
<path d="M13.96 7.33329C13.6533 4.55329 11.4466 2.34663 8.66663 2.03996V0.666626H7.33329V2.03996C6.67996 2.11329 6.05996 2.29329 5.48663 2.55996L6.50663 3.57996C6.97329 3.41996 7.47996 3.33329 7.99996 3.33329C10.58 3.33329 12.6666 5.41996 12.6666 7.99996C12.6666 8.52663 12.58 9.02663 12.42 9.49329L13.44 10.5133C13.7066 9.93996 13.8866 9.31996 13.96 8.66663H15.3333V7.33329H13.96ZM1.99996 2.84663L3.35996 4.20663C2.64663 5.07996 2.17329 6.15329 2.03996 7.33329H0.666626V8.66663H2.03996C2.34663 11.4466 4.55329 13.6533 7.33329 13.96V15.3333H8.66663V13.96C9.84663 13.8266 10.92 13.3533 11.7933 12.64L13.1533 14L14.0933 13.06L2.93996 1.90663L1.99996 2.84663ZM10.8466 11.6933C10.06 12.3 9.07329 12.6666 7.99996 12.6666C5.41996 12.6666 3.33329 10.58 3.33329 7.99996C3.33329 6.92663 3.69996 5.93996 4.30663 5.15329L10.8466 11.6933Z" fill="#6F797A"/>
</svg>
