<svg width="16" height="16" viewBox="0 0 16 16" fill="none" xmlns="http://www.w3.org/2000/svg">
<g clip-path="url(#clip0_2001_551)">
<path d="M8.00002 4.66669C6.16002 4.66669 4.66669 6.16002 4.66669 8.00002C4.66669 9.84002 6.16002 11.3334 8.00002 11.3334C9.84002 11.3334 11.3334 9.84002 11.3334 8.00002C11.3334 6.16002 9.84002 4.66669 8.00002 4.66669ZM1.33335 8.66669H2.66669C3.03335 8.66669 3.33335 8.36669 3.33335 8.00002C3.33335 7.63335 3.03335 7.33335 2.66669 7.33335H1.33335C0.966687 7.33335 0.666687 7.63335 0.666687 8.00002C0.666687 8.36669 0.966687 8.66669 1.33335 8.66669ZM13.3334 8.66669H14.6667C15.0334 8.66669 15.3334 8.36669 15.3334 8.00002C15.3334 7.63335 15.0334 7.33335 14.6667 7.33335H13.3334C12.9667 7.33335 12.6667 7.63335 12.6667 8.00002C12.6667 8.36669 12.9667 8.66669 13.3334 8.66669ZM7.33335 1.33335V2.66669C7.33335 3.03335 7.63335 3.33335 8.00002 3.33335C8.36669 3.33335 8.66669 3.03335 8.66669 2.66669V1.33335C8.66669 0.966687 8.36669 0.666687 8.00002 0.666687C7.63335 0.666687 7.33335 0.966687 7.33335 1.33335ZM7.33335 13.3334V14.6667C7.33335 15.0334 7.63335 15.3334 8.00002 15.3334C8.36669 15.3334 8.66669 15.0334 8.66669 14.6667V13.3334C8.66669 12.9667 8.36669 12.6667 8.00002 12.6667C7.63335 12.6667 7.33335 12.9667 7.33335 13.3334ZM3.99335 3.05335C3.73335 2.79335 3.30669 2.79335 3.05335 3.05335C2.79335 3.31335 2.79335 3.74002 3.05335 3.99335L3.76002 4.70002C4.02002 4.96002 4.44669 4.96002 4.70002 4.70002C4.95335 4.44002 4.96002 4.01335 4.70002 3.76002L3.99335 3.05335ZM12.24 11.3C11.98 11.04 11.5534 11.04 11.3 11.3C11.04 11.56 11.04 11.9867 11.3 12.24L12.0067 12.9467C12.2667 13.2067 12.6934 13.2067 12.9467 12.9467C13.2067 12.6867 13.2067 12.26 12.9467 12.0067L12.24 11.3ZM12.9467 3.99335C13.2067 3.73335 13.2067 3.30669 12.9467 3.05335C12.6867 2.79335 12.26 2.79335 12.0067 3.05335L11.3 3.76002C11.04 4.02002 11.04 4.44669 11.3 4.70002C11.56 4.95335 11.9867 4.96002 12.24 4.70002L12.9467 3.99335ZM4.70002 12.24C4.96002 11.98 4.96002 11.5534 4.70002 11.3C4.44002 11.04 4.01335 11.04 3.76002 11.3L3.05335 12.0067C2.79335 12.2667 2.79335 12.6934 3.05335 12.9467C3.31335 13.2 3.74002 13.2067 3.99335 12.9467L4.70002 12.24Z" fill="#191C1D"/>
</g>
<defs>
<clipPath id="clip0_2001_551">
<rect width="16" height="16" fill="white"/>
</clipPath>
</defs>
</svg>
