<svg width="24" height="24" viewBox="0 0 24 24" fill="none" xmlns="http://www.w3.org/2000/svg">
<g clip-path="url(#clip0_4_36)">
<path d="M12 24C18.6274 24 24 18.6274 24 12C24 5.37258 18.6274 0 12 0C5.37258 0 0 5.37258 0 12C0 18.6274 5.37258 24 12 24Z" fill="#ECEEEF"/>
<path d="M14.4466 6.66665H13.3333V5.33331H10.6666V6.66665H9.55329C9.06663 6.66665 8.66663 7.06665 8.66663 7.55331V17.7733C8.66663 18.2666 9.06663 18.6666 9.55329 18.6666H14.44C14.9333 18.6666 15.3333 18.2666 15.3333 17.78V7.55331C15.3333 7.06665 14.9333 6.66665 14.4466 6.66665Z" fill="#00D800"/>
</g>
<defs>
<clipPath id="clip0_4_36">
<rect width="24" height="24" fill="white"/>
</clipPath>
</defs>
</svg>
