<svg width="16" height="16" viewBox="0 0 16 16" fill="none" xmlns="http://www.w3.org/2000/svg">
<path d="M8.00002 1.33331C4.44669 4.36665 2.66669 6.98665 2.66669 9.19998C2.66669 12.52 5.20002 14.6666 8.00002 14.6666C10.8 14.6666 13.3334 12.52 13.3334 9.19998C13.3334 6.98665 11.5534 4.36665 8.00002 1.33331ZM5.22002 9.33331C5.46669 9.33331 5.66669 9.50665 5.71335 9.74665C5.98669 11.2266 7.23335 11.7333 8.14002 11.66C8.42669 11.6466 8.66669 11.8733 8.66669 12.16C8.66669 12.4266 8.45335 12.6466 8.18669 12.66C6.76669 12.7466 5.10669 11.9333 4.72669 9.91331C4.67335 9.61331 4.91335 9.33331 5.22002 9.33331Z" fill="#191C1D"/>
</svg>
