<svg width="16" height="14" viewBox="0 0 16 14" fill="none" xmlns="http://www.w3.org/2000/svg">
<path d="M2 3.66659H3.33333V8.33325H2V3.66659ZM0 5.66659H1.33333V10.3333H0V5.66659ZM14.6667 3.66659H16V8.33325H14.6667V3.66659ZM12.6667 5.66659H14V10.3333H12.6667V5.66659ZM10.6667 0.339919L5.33333 0.333252C4.6 0.333252 4 0.933252 4 1.66659V12.3333C4 13.0666 4.6 13.6666 5.33333 13.6666H10.6667C11.4 13.6666 12 13.0666 12 12.3333V1.66659C12 0.933252 11.4 0.339919 10.6667 0.339919ZM10.6667 10.3333H5.33333V3.66659H10.6667V10.3333Z" fill="#6F797A"/>
</svg>
