<svg width="24" height="24" viewBox="0 0 24 24" fill="none" xmlns="http://www.w3.org/2000/svg">
<circle cx="12" cy="12" r="12" fill="#ECEEEF"/>
<g clip-path="url(#clip0_2001_546)">
<path d="M17.96 11.3334C17.6533 8.55335 15.4466 6.34669 12.6666 6.04002V4.66669H11.3333V6.04002C10.68 6.11335 10.06 6.29335 9.48663 6.56002L10.5066 7.58002C10.9733 7.42002 11.48 7.33335 12 7.33335C14.58 7.33335 16.6666 9.42002 16.6666 12C16.6666 12.5267 16.58 13.0267 16.42 13.4934L17.44 14.5134C17.7066 13.94 17.8866 13.32 17.96 12.6667H19.3333V11.3334H17.96ZM5.99996 6.84669L7.35996 8.20669C6.64663 9.08002 6.17329 10.1534 6.03996 11.3334H4.66663V12.6667H6.03996C6.34663 15.4467 8.55329 17.6534 11.3333 17.96V19.3334H12.6666V17.96C13.8466 17.8267 14.92 17.3534 15.7933 16.64L17.1533 18L18.0933 17.06L6.93996 5.90669L5.99996 6.84669ZM14.8466 15.6934C14.06 16.3 13.0733 16.6667 12 16.6667C9.41996 16.6667 7.33329 14.58 7.33329 12C7.33329 10.9267 7.69996 9.94002 8.30663 9.15335L14.8466 15.6934Z" fill="#6F797A"/>
</g>
<defs>
<clipPath id="clip0_2001_546">
<rect width="16" height="16" fill="white" transform="translate(4 4)"/>
</clipPath>
</defs>
</svg>
