<svg width="24" height="24" viewBox="0 0 24 24" fill="none" xmlns="http://www.w3.org/2000/svg">
<g clip-path="url(#clip0_4_33)">
<path d="M12 24C18.6274 24 24 18.6274 24 12C24 5.37258 18.6274 0 12 0C5.37258 0 0 5.37258 0 12C0 18.6274 5.37258 24 12 24Z" fill="#ECEEEF"/>
<path d="M14 12.6666V7.33331C14 6.22665 13.1067 5.33331 12 5.33331C10.8934 5.33331 10 6.22665 10 7.33331V12.6666C9.19335 13.2733 8.66669 14.2466 8.66669 15.3333C8.66669 17.1733 10.16 18.6666 12 18.6666C13.84 18.6666 15.3334 17.1733 15.3334 15.3333C15.3334 14.2466 14.8067 13.2733 14 12.6666ZM11.3334 11.3333V7.33331C11.3334 6.96665 11.6334 6.66665 12 6.66665C12.3667 6.66665 12.6667 6.96665 12.6667 7.33331V7.99998H12V8.66665H12.6667V9.99998H12V10.6666H12.6667V11.3333H11.3334Z" fill="#191C1D"/>
</g>
<defs>
<clipPath id="clip0_4_33">
<rect width="24" height="24" fill="white"/>
</clipPath>
</defs>
</svg>
