<svg width="22" height="22" viewBox="0 0 22 22" fill="none" xmlns="http://www.w3.org/2000/svg">
<path d="M18.0549 2.5349C16.3849 1.1449 14.3149 0.234902 12.0249 0.0249023V2.0349C13.7549 2.2249 15.3349 2.9149 16.6349 3.9549L18.0549 2.5349Z" fill="#3F484A"/>
<path d="M10.0249 2.0349V0.0249023C7.7349 0.224902 5.6649 1.1449 3.9949 2.5349L5.4149 3.9549C6.7149 2.9149 8.2949 2.2249 10.0249 2.0349Z" fill="#3F484A"/>
<path d="M4.0049 5.3649L2.5849 3.9449C1.1949 5.6149 0.284902 7.6849 0.0749023 9.9749H2.0849C2.2749 8.2449 2.9649 6.6649 4.0049 5.3649Z" fill="#3F484A"/>
<path d="M19.9649 9.9749H21.9749C21.7649 7.6849 20.8549 5.6149 19.4649 3.9449L18.0449 5.3649C19.0849 6.6649 19.7749 8.2449 19.9649 9.9749Z" fill="#3F484A"/>
<path d="M6.0249 10.9749L9.4649 12.5349L11.0249 15.9749L12.5849 12.5349L16.0249 10.9749L12.5849 9.4149L11.0249 5.9749L9.4649 9.4149L6.0249 10.9749Z" fill="#3F484A"/>
<path d="M11.0249 19.9749C7.9149 19.9749 5.1749 18.3849 3.5649 15.9749H6.0249V13.9749H0.0249023V19.9749H2.0249V17.2749C4.0149 20.1149 7.2949 21.9749 11.0249 21.9749C15.8949 21.9749 20.0249 18.8049 21.4649 14.4149L19.5049 13.9649C18.2749 17.4549 14.9449 19.9749 11.0249 19.9749Z" fill="#3F484A"/>
</svg>
